<svg id="Capa_2" data-name="Capa 2" xmlns="http://www.w3.org/2000/svg" viewBox="0 0 1482.79 386.11"><defs><style>.cls-1{fill:#fff;}</style></defs><path class="cls-1" d="M341.51,89.08a14.36,14.36,0,0,0-12.84-13.16c-1.81-.19-45.87-4.8-83.36-26.63-37.27-21.7-61.16-43-62.16-43.92a14.49,14.49,0,0,0-19.71,0c-.22.2-23.1,21-62.56,44C62.48,71.8,18.72,75.83,18.29,75.87A14.47,14.47,0,0,0,5.05,88.67c-.29,2.65-1.63,30.62-.9,62.57,1,46.4,6.3,72.81,21.18,102.89,9,18.18,28.75,43.1,39.1,53.63a258.91,258.91,0,0,0,34.66,29.79c6.48,4.51,10.63,6.89,11.75,7.5a16,16,0,0,0,13.81.21c1-.46,4.53-2.27,9.81-5.33,4.35-2.52,11.44-6.77,20.49-12.74,4.89-3.23,9.88-6.64,14.81-10.12,23.8-16.82,58.6-45.6,81.41-74.3,21.11-26.56,33.13-55.34,27.66-83.05-3.63-18.4-12.4-31-26.85-40.78a59.92,59.92,0,0,0-47.17-8,69.21,69.21,0,0,0-31.37,18.27c-5.75-5.94-26.88-25.18-58.51-18.71-28.71,5.87-55.56,33.58-46.4,79.93,2.76,14,9.83,28.88,21.14,43.47,8.22,10.6,18.63,21,30.58,31a10.33,10.33,0,0,0,12.25.64c3.74-2.36,7.81-5.18,11.77-8.21a6.85,6.85,0,0,0,2.73-4.84,6.67,6.67,0,0,0-2.33-5.66c-14.69-12.56-41.41-36.68-47.21-61.46-6.45-27.58,12.52-42.93,24-45.11,11.22-2.13,21.63-.29,31,6.39A111.87,111.87,0,0,1,166.24,159a9.91,9.91,0,0,0,14.19,0,99.29,99.29,0,0,1,13.71-12.17c12.83-9.2,30.2-10.29,42.81-1.21,29.19,21,6.05,61.54-10.09,80.7-10.64,12.63-26.27,31.34-73.7,66a306.44,306.44,0,0,1-35.37,22.24c-5.47-3.44-15.3-11.62-27.13-23-21.81-21-43.9-50.46-50.92-85.93C31,161.24,33.33,103.25,33.33,103.25s45-6.83,82.34-28.32a412.65,412.65,0,0,0,57.77-40.06s30.09,24.63,56.34,39.85c23.31,13.51,52.75,23.27,83.43,28.54.42,8.62,1.93,62.88-4.14,95-8.47,44.88-35.72,83.34-91,125.39-18.44,14-46.79,32.53-62.59,42.22-3.39,2.08-5.33,6.81-2.69,10.41a13.52,13.52,0,0,0,2.14,2.07c5,3.72,8.36,6.18,11.84,8,4.5,2.31,9.41,1.13,12.86-.87a532.91,532.91,0,0,0,56.27-37.7c19.12-14.55,41.2-32.58,60-55.9,23.68-29.32,37.38-59.64,41.92-88.13C345.59,155.51,341.51,89.08,341.51,89.08Z" transform="translate(-3.94 -1.5)"/><path class="cls-1" d="M416.57,265.94c-3.65-1.83-4-4.75-2.19-8.4l9.86-17.16c2.19-3.29,5.11-4,8.4-1.83a93.45,93.45,0,0,0,51.49,15c18.62,0,29.94-6.94,29.94-19.72,0-11.69-8.76-17.53-35.42-24.1-32.87-8-59.89-20.81-59.89-50.76,0-30.31,26.29-49.66,65.73-49.66,25.2,0,45.28,6.57,59.52,15,3.29,1.83,4,4.75,1.83,8.4l-9.13,16.8c-1.83,3.29-4.75,4-8.4,1.83-14.24-7.67-28.12-12.05-45.65-12.05-15.7,0-27,5.48-27,17.89,0,11,10.22,15.34,38.71,22.28C529.77,188.53,551,200.58,551,232c0,30.67-26.29,51.49-69,51.49C455.65,283.46,434.1,276.53,416.57,265.94Z" transform="translate(-3.94 -1.5)"/><path class="cls-1" d="M654.35,108.91c-50.76,0-86.18,38-86.18,87.28,0,50,38.34,87.28,90.56,87.28,31,0,50.76-9.49,62.81-18.62,2.92-2.56,3.29-5.48,1.46-8.76l-9.49-15.7c-1.83-3.65-4.75-4-8-1.46-9.86,6.57-22.64,13.88-42.73,13.88-31.41,0-54-19.35-58.43-46H728.84c3.65,0,5.84-2.19,6.21-6.21v-5.84C735.06,144.33,702.55,108.91,654.35,108.91Zm46,71.94H604.68c5.11-25.93,24.47-42.36,50.76-42.36,23.74,0,42.36,16.8,44.92,41.63Z" transform="translate(-3.94 -1.5)"/><path class="cls-1" d="M756.23,196.55c0-49.66,39.8-87.64,91.29-87.64,26.66,0,43.09,7.3,54.41,14.61,3.29,2.56,4,5.48,1.83,9.13l-9.49,16.43c-1.83,3.29-5.11,3.65-8.4,1.83-8.4-5.11-19.72-8.76-34.33-8.76-34.69,0-58.06,23-58.06,54.41,0,30.67,23.37,53.68,56.6,53.68,16.43,0,27-3.65,35.79-8.4,3.65-2.19,6.21-1.46,7.67,1.46l9.86,17.53c1.83,3.65,1.1,6.21-2.19,8.4-8.76,5.48-25.2,14.24-53.68,14.24C793.48,283.46,756.23,245.49,756.23,196.55Z" transform="translate(-3.94 -1.5)"/><path class="cls-1" d="M1222.94,116.21l-2.19,23.37c-.36,4.38-2.92,5.84-6.94,5.11a35.71,35.71,0,0,0-9.49-1.1c-31.4,0-47.47,23.37-47.84,47.11V274c0,4-2.19,6.21-6.21,6.21h-24.1c-3.65,0-6.21-2.19-6.21-6.21V118.41c0-4,2.56-6.21,6.21-6.21h19c3.65,0,6.21,2.19,6.21,5.84l1.1,27c6.94-19.72,27-36.15,57-36.15a58.27,58.27,0,0,1,8,.37C1221.48,109.64,1223.31,112.56,1222.94,116.21Z" transform="translate(-3.94 -1.5)"/><path class="cls-1" d="M1252.33,274V25.65c0-4,2.56-6.21,6.21-6.21h24.1c4,0,6.21,2.19,6.21,6.21V274c0,4-2.19,6.21-6.21,6.21h-24.1C1254.88,280.18,1252.33,278,1252.33,274Z" transform="translate(-3.94 -1.5)"/><path class="cls-1" d="M1486,119.5l-62.08,147.9-33.23,79.24a7.15,7.15,0,0,1-6.94,4.75H1360c-4.38,0-6.57-2.92-4.75-6.94l25.93-64.27L1311.83,119.5c-1.83-4.38,0-7.3,4.38-7.3h28.12c3.29,0,5.84,1.46,6.94,4.75l49.3,121.6L1449.14,117c1.1-3.29,3.65-4.75,6.94-4.75h25.56C1486,112.2,1487.84,115.12,1486,119.5Z" transform="translate(-3.94 -1.5)"/><path class="cls-1" d="M1082,112.19h-24.47c-3.65,0-5.84,2.19-5.84,6.21V198c0,30.38-16.84,50-42.36,50.38h-1.59c-25.52-.37-42.36-20-42.36-50.38V118.4c0-4-2.19-6.21-5.84-6.21H935.09c-3.65,0-5.84,2.19-5.84,6.21v86.91c0,43.74,26.56,73.51,65.62,77.65a101.39,101.39,0,0,0,13.31.78,110,110,0,0,0,11.17-.52c40.44-3,68.51-33.11,68.51-77.9V118.4C1087.86,114.38,1085.67,112.19,1082,112.19Z" transform="translate(-3.94 -1.5)"/></svg>